<svg width="16" height="16" viewBox="0 0 16 16" fill="none" xmlns="http://www.w3.org/2000/svg">
<mask id="mask0_6_7" style="mask-type:alpha" maskUnits="userSpaceOnUse" x="0" y="0" width="16" height="16">
<rect width="16" height="16" fill="#D9D9D9"/>
</mask>
<g mask="url(#mask0_6_7)">
<path d="M8.55 12.6667H12.3167V12.8667C12.3167 13.0556 12.2528 13.2194 12.125 13.3583C11.9972 13.4972 11.8389 13.5778 11.65 13.6L3.15 14.6667C2.96111 14.6889 2.79722 14.6472 2.65833 14.5417C2.51945 14.4361 2.43889 14.2889 2.41667 14.1L1.35 5.46667C1.32778 5.27778 1.36945 5.11389 1.475 4.975C1.58056 4.83611 1.72778 4.75555 1.91667 4.73333L3.35 4.56667V5.9L2.75 5.96667L3.65 13.2667L8.55 12.6667ZM9.68334 9.33333C10.4389 9.33333 11.0806 9.07222 11.6083 8.55C12.1361 8.02778 12.4278 7.4 12.4833 6.66667C11.7278 6.66667 11.0806 6.92778 10.5417 7.45C10.0028 7.97222 9.71667 8.6 9.68334 9.33333ZM5.35 11.3333C5.16111 11.3333 5.00278 11.2694 4.875 11.1417C4.74722 11.0139 4.68333 10.8556 4.68333 10.6667V2C4.68333 1.81111 4.74722 1.65278 4.875 1.525C5.00278 1.39722 5.16111 1.33333 5.35 1.33333H14.0167C14.2056 1.33333 14.3639 1.39722 14.4917 1.525C14.6194 1.65278 14.6833 1.81111 14.6833 2V10.6667C14.6833 10.8556 14.6194 11.0139 14.4917 11.1417C14.3639 11.2694 14.2056 11.3333 14.0167 11.3333H5.35ZM9.68334 9.33333C9.65 8.6 9.36389 7.97222 8.825 7.45C8.28611 6.92778 7.63889 6.66667 6.88333 6.66667C6.93889 7.4 7.23056 8.02778 7.75833 8.55C8.28611 9.07222 8.92778 9.33333 9.68334 9.33333ZM9.68334 7.33333C9.87222 7.33333 10.0306 7.26944 10.1583 7.14167C10.2861 7.01389 10.35 6.85555 10.35 6.66667V6.5L10.5167 6.56667C10.6833 6.63333 10.8528 6.65 11.025 6.61667C11.1972 6.58333 11.3278 6.48889 11.4167 6.33333C11.5167 6.16667 11.55 5.98889 11.5167 5.8C11.4833 5.61111 11.3722 5.47778 11.1833 5.4L11.0167 5.33333L11.1833 5.26667C11.3722 5.18889 11.4806 5.05278 11.5083 4.85833C11.5361 4.66389 11.5056 4.48889 11.4167 4.33333C11.3167 4.16667 11.1833 4.06944 11.0167 4.04167C10.85 4.01389 10.6833 4.03333 10.5167 4.1L10.35 4.16667V4C10.35 3.81111 10.2861 3.65278 10.1583 3.525C10.0306 3.39722 9.87222 3.33333 9.68334 3.33333C9.49445 3.33333 9.33611 3.39722 9.20833 3.525C9.08056 3.65278 9.01667 3.81111 9.01667 4V4.16667L8.85 4.1C8.68334 4.03333 8.51667 4.01389 8.35 4.04167C8.18334 4.06944 8.05 4.16667 7.95 4.33333C7.86111 4.48889 7.83056 4.66389 7.85834 4.85833C7.88611 5.05278 7.99445 5.18889 8.18334 5.26667L8.35 5.33333L8.18334 5.4C7.99445 5.47778 7.88334 5.61111 7.85 5.8C7.81667 5.98889 7.85 6.16667 7.95 6.33333C8.03889 6.48889 8.16945 6.58333 8.34167 6.61667C8.51389 6.65 8.68334 6.63333 8.85 6.56667L9.01667 6.5V6.66667C9.01667 6.85555 9.08056 7.01389 9.20833 7.14167C9.33611 7.26944 9.49445 7.33333 9.68334 7.33333ZM9.68334 6C9.49445 6 9.33611 5.93611 9.20833 5.80833C9.08056 5.68055 9.01667 5.52222 9.01667 5.33333C9.01667 5.14444 9.08056 4.98611 9.20833 4.85833C9.33611 4.73055 9.49445 4.66667 9.68334 4.66667C9.87222 4.66667 10.0306 4.73055 10.1583 4.85833C10.2861 4.98611 10.35 5.14444 10.35 5.33333C10.35 5.52222 10.2861 5.68055 10.1583 5.80833C10.0306 5.93611 9.87222 6 9.68334 6ZM6.01667 10H13.35V2.66667H6.01667V10Z" fill="white"/>
</g>
</svg>
