<svg width="16" height="16" viewBox="0 0 16 16" fill="none" xmlns="http://www.w3.org/2000/svg">
<mask id="mask0_3_8" style="mask-type:alpha" maskUnits="userSpaceOnUse" x="0" y="0" width="16" height="16">
<rect width="16" height="16" fill="#D9D9D9"/>
</mask>
<g mask="url(#mask0_3_8)">
<path d="M6.66667 4.66667H11.3333C11.5222 4.66667 11.6806 4.73056 11.8083 4.85833C11.9361 4.98611 12 5.14444 12 5.33333C12 5.52222 11.9361 5.68056 11.8083 5.80833C11.6806 5.93611 11.5222 6 11.3333 6H6.66667C6.47778 6 6.31944 5.93611 6.19167 5.80833C6.06389 5.68056 6 5.52222 6 5.33333C6 5.14444 6.06389 4.98611 6.19167 4.85833C6.31944 4.73056 6.47778 4.66667 6.66667 4.66667ZM6.66667 6.66667H11.3333C11.5222 6.66667 11.6806 6.73056 11.8083 6.85833C11.9361 6.98611 12 7.14444 12 7.33333C12 7.52222 11.9361 7.68056 11.8083 7.80833C11.6806 7.93611 11.5222 8 11.3333 8H6.66667C6.47778 8 6.31944 7.93611 6.19167 7.80833C6.06389 7.68056 6 7.52222 6 7.33333C6 7.14444 6.06389 6.98611 6.19167 6.85833C6.31944 6.73056 6.47778 6.66667 6.66667 6.66667ZM8 14.6667H4C3.44444 14.6667 2.97222 14.4722 2.58333 14.0833C2.19444 13.6944 2 13.2222 2 12.6667V11.3333C2 11.1444 2.06389 10.9861 2.19167 10.8583C2.31944 10.7306 2.47778 10.6667 2.66667 10.6667H4V2.66667C4 2.3 4.13056 1.98611 4.39167 1.725C4.65278 1.46389 4.96667 1.33333 5.33333 1.33333H12.6667C13.0333 1.33333 13.3472 1.46389 13.6083 1.725C13.8694 1.98611 14 2.3 14 2.66667V7.35C13.7778 7.32778 13.5528 7.33611 13.325 7.375C13.0972 7.41389 12.8778 7.48333 12.6667 7.58333V2.66667H5.33333V10.6667H9.33333L8 12H3.33333V12.6667C3.33333 12.8556 3.39722 13.0139 3.525 13.1417C3.65278 13.2694 3.81111 13.3333 4 13.3333H8V14.6667ZM9.33333 14V12.9C9.33333 12.8111 9.35 12.725 9.38333 12.6417C9.41667 12.5583 9.46667 12.4833 9.53333 12.4167L13.0167 8.95C13.1167 8.85 13.2278 8.77778 13.35 8.73333C13.4722 8.68889 13.5944 8.66667 13.7167 8.66667C13.85 8.66667 13.9778 8.69167 14.1 8.74167C14.2222 8.79167 14.3333 8.86667 14.4333 8.96667L15.05 9.58333C15.1389 9.68333 15.2083 9.79444 15.2583 9.91667C15.3083 10.0389 15.3333 10.1611 15.3333 10.2833C15.3333 10.4056 15.3111 10.5306 15.2667 10.6583C15.2222 10.7861 15.15 10.9 15.05 11L11.5833 14.4667C11.5167 14.5333 11.4417 14.5833 11.3583 14.6167C11.275 14.65 11.1889 14.6667 11.1 14.6667H10C9.81111 14.6667 9.65278 14.6028 9.525 14.475C9.39722 14.3472 9.33333 14.1889 9.33333 14ZM10.3333 13.6667H10.9667L12.9833 11.6333L12.6833 11.3167L12.3667 11.0167L10.3333 13.0333V13.6667ZM12.6833 11.3167L12.3667 11.0167L12.9833 11.6333L12.6833 11.3167Z" fill="white"/>
</g>
</svg>
